<?xml version="1.0" encoding="utf-8"?>
<!-- Generator: Adobe Illustrator 22.0.1, SVG Export Plug-In . SVG Version: 6.00 Build 0)  -->
<svg version="1.1" id="Layer_1" xmlns="http://www.w3.org/2000/svg" xmlns:xlink="http://www.w3.org/1999/xlink" x="0px" y="0px"
	 viewBox="0 0 49 49" style="enable-background:new 0 0 49 49;" xml:space="preserve">
<style type="text/css">
	.st0{opacity:0.3;fill:none;stroke:#999999;stroke-width:2;enable-background:new    ;}
	.st1{fill:#DDDDDD;}
</style>
<path class="st0" d="M47.5,24.5c0,13-10.4,23.5-23.3,23.5S1,37.5,1,24.5S11.4,1,24.3,1S47.5,11.5,47.5,24.5z"/>
<g>
	<path class="st1" d="M13.8,29.6l1.8,3.1l0,0c0.4,0.7,1.1,1.2,1.9,1.2l0,0l0,0h12L27,29.6H13.8z"/>
	<path class="st1" d="M35.2,29.6c0-0.4-0.1-0.8-0.3-1.2l-7-12.2c-0.4-0.7-1.1-1.1-1.9-1.1h-3.7l10.9,18.8l1.7-3
		C35.1,30.4,35.2,30.1,35.2,29.6z"/>
	<polygon class="st1" points="25.3,26.5 20.4,18.1 15.6,26.5 	"/>
</g>
</svg>
