<?xml version="1.0" encoding="utf-8"?>
<!-- Generator: Adobe Illustrator 22.0.1, SVG Export Plug-In . SVG Version: 6.00 Build 0)  -->
<svg version="1.1" id="Layer_1" xmlns="http://www.w3.org/2000/svg" xmlns:xlink="http://www.w3.org/1999/xlink" x="0px" y="0px"
	 viewBox="0 0 49 49" style="enable-background:new 0 0 49 49;" xml:space="preserve">
<style type="text/css">
	.st0{opacity:0.3;fill:none;stroke:#999999;stroke-width:2;enable-background:new    ;}
	.st1{fill:#DDDDDD;}
</style>
<path class="st0" d="M48,24.5C48,37.5,37.6,48,24.8,48S1.5,37.5,1.5,24.5S11.9,1,24.8,1S48,11.5,48,24.5z"/>
<path class="st1" d="M30.6,17.6H18.3c-1,0-1.9,0.8-1.9,1.9V32c0,1,0.9,1.9,1.9,1.9h12.3c1.1,0,1.9-0.8,1.9-1.9V19.5
	C32.5,18.4,31.6,17.6,30.6,17.6L30.6,17.6z M24.4,22.6c1.7,0,3.1,1.4,3.1,3.2c0,1.7-1.4,3.2-3.1,3.2s-3.1-1.4-3.1-3.2
	S22.7,22.6,24.4,22.6L24.4,22.6z M30.5,31.2c0,0.4-0.3,0.7-0.7,0.7H19.1c-0.4,0-0.7-0.3-0.7-0.7v-6.7h1.3c-0.2,0.7-0.2,1.6,0,2.4
	c0.4,1.9,1.9,3.4,3.8,3.8c3.1,0.6,5.8-1.8,5.8-4.9c0-0.4-0.1-0.9-0.2-1.4h1.3v6.8H30.5z M30.5,21.7h-2v-2h2V21.7L30.5,21.7z"/>
</svg>
