<?xml version="1.0" encoding="utf-8"?>
<!-- Generator: Adobe Illustrator 22.0.1, SVG Export Plug-In . SVG Version: 6.00 Build 0)  -->
<svg version="1.1" id="Layer_1" xmlns="http://www.w3.org/2000/svg" xmlns:xlink="http://www.w3.org/1999/xlink" x="0px" y="0px"
	 viewBox="0 0 49 49" style="enable-background:new 0 0 49 49;" xml:space="preserve">
<style type="text/css">
	.st0{opacity:0.3;fill:none;stroke:#999999;stroke-width:2;enable-background:new    ;}
	.st1{fill:#DDDDDD;}
</style>
<path class="st0" d="M47.8,24.5c0,13-10.4,23.5-23.3,23.5S1.2,37.5,1.2,24.5S11.7,1,24.5,1S47.8,11.5,47.8,24.5z"/>
<g>
	<path class="st1" d="M25,25.3L25,25.3l7.7-7.2c-0.3-0.2-0.6-0.3-0.9-0.3H17.3c-0.3,0-0.7,0.1-0.9,0.3l7.7,7.2
		C24.3,25.6,24.7,25.6,25,25.3z"/>
	<path class="st1" d="M33.3,18.8L25.7,26c-0.3,0.3-0.7,0.5-1.1,0.5s-0.8-0.2-1.1-0.5l-7.7-7.2c-0.2,0.3-0.3,0.6-0.3,0.9v9.6
		c0,1,0.8,1.8,1.8,1.8h14.5c1,0,1.8-0.8,1.8-1.8v-9.6C33.6,19.4,33.5,19.1,33.3,18.8z"/>
</g>
</svg>
