<?xml version="1.0" encoding="utf-8"?>
<!-- Generator: Adobe Illustrator 22.0.1, SVG Export Plug-In . SVG Version: 6.00 Build 0)  -->
<svg version="1.1" id="Layer_1" xmlns="http://www.w3.org/2000/svg" xmlns:xlink="http://www.w3.org/1999/xlink" x="0px" y="0px"
	 viewBox="0 0 49 49" style="enable-background:new 0 0 49 49;" xml:space="preserve">
<style type="text/css">
	.st0{opacity:0.3;fill:none;stroke:#DDDDDD;stroke-width:2;enable-background:new    ;}
	.st1{fill:#DDDDDD;}
</style>
<path class="st0" d="M47.8,24.5c0,13-10.4,23.5-23.3,23.5S1.2,37.5,1.2,24.5S11.7,1,24.5,1S47.8,11.5,47.8,24.5z"/>
<path class="st1" d="M35.5,22.9l-16.4-9.4c-0.6-0.3-1.2-0.3-1.7,0s-0.8,0.9-0.8,1.5v18.8c0,0.6,0.3,1.2,0.8,1.5
	c0.3,0.1,0.6,0.3,0.9,0.3c0.3,0,0.6-0.1,0.8-0.3L35.5,26c0.6-0.3,0.9-0.9,0.9-1.5S36.1,23.3,35.5,22.9z"/>
</svg>
