<?xml version="1.0" encoding="utf-8"?>
<!-- Generator: Adobe Illustrator 22.0.1, SVG Export Plug-In . SVG Version: 6.00 Build 0)  -->
<svg version="1.1" id="Layer_1" xmlns="http://www.w3.org/2000/svg" xmlns:xlink="http://www.w3.org/1999/xlink" x="0px" y="0px"
	 viewBox="0 0 49 49" style="enable-background:new 0 0 49 49;" xml:space="preserve">
<style type="text/css">
	.st0{opacity:0.3;fill:none;stroke:#999999;stroke-width:2;enable-background:new    ;}
	.st1{fill:#DDDDDD;}
</style>
<path class="st0" d="M47.5,24.5c0,13-10.4,23.5-23.3,23.5S1,37.5,1,24.5S11.4,1,24.3,1S47.5,11.5,47.5,24.5z"/>
<path class="st1" d="M20.7,32.8c7.7,0,11.9-6.4,11.9-11.9c0-0.2,0-0.4,0-0.5c0.8-0.6,1.5-1.3,2.1-2.2c-0.8,0.3-1.6,0.6-2.4,0.7
	c0.9-0.5,1.5-1.3,1.8-2.3c-0.8,0.5-1.7,0.8-2.7,1c-1.6-1.7-4.2-1.8-5.9-0.2c-1.1,1-1.5,2.5-1.2,4c-3.4-0.2-6.5-1.8-8.6-4.4
	c-1.1,1.9-0.5,4.3,1.3,5.6c-0.7,0-1.3-0.2-1.9-0.5c0,0,0,0,0,0.1c0,2,1.4,3.7,3.3,4.1c-0.6,0.2-1.3,0.2-1.9,0.1
	c0.5,1.7,2.1,2.9,3.9,2.9C19,30.3,17.2,31,15.3,31c-0.3,0-0.7,0-1-0.1C16.2,32.1,18.5,32.8,20.7,32.8"/>
</svg>
